<svg xmlns="http://www.w3.org/2000/svg" xmlns:xlink="http://www.w3.org/1999/xlink" viewBox="0 0 108.557 33.686" overflow="visible"><path d="M 5.246 19.701 C 6.785 18.36 9.123 18.593 10.371 20.213 L 18.08 30.216 C 19.168 31.628 18.171 33.686 16.397 33.686 L 2.368 33.686 C 1.06 33.686 0 32.616 0 31.297 L 0 25.256 C 0 24.631 0.269 24.037 0.738 23.629 Z M 30.188 0 C 31.495 0 32.555 1.07 32.555 2.389 L 32.555 31.297 C 32.555 32.616 31.495 33.686 30.188 33.686 L 28.551 33.686 C 27.897 33.686 27.28 33.383 26.876 32.864 L 14.53 17.013 C 13.385 15.542 13.553 13.431 14.915 12.164 L 27.376 0.569 C 27.769 0.203 28.285 0 28.82 0 Z M 68.157 0 C 69.465 0 70.525 1.07 70.525 2.389 L 70.525 31.297 C 70.525 32.616 69.465 33.686 68.157 33.686 L 40.337 33.686 C 39.03 33.686 37.97 32.616 37.97 31.297 L 37.97 24.206 C 37.97 23.806 38.165 23.427 38.513 23.236 C 39.519 22.684 40.672 22.371 41.898 22.371 L 51.495 22.371 C 54.132 22.371 56.476 21.758 58.527 20.534 C 60.62 19.309 62.273 17.641 63.487 15.529 C 64.742 13.417 65.37 11.01 65.37 8.307 C 65.37 5.773 64.784 3.514 63.612 1.529 C 63.233 0.885 63.664 0 64.406 0 Z M 81.248 19.701 C 82.787 18.36 85.125 18.593 86.373 20.213 L 94.082 30.216 C 95.17 31.628 94.173 33.686 92.4 33.686 L 78.37 33.686 C 77.062 33.686 76.002 32.616 76.002 31.297 L 76.002 25.256 C 76.002 24.631 76.271 24.037 76.74 23.629 Z M 106.19 0 C 107.497 0 108.557 1.07 108.557 2.389 L 108.557 31.297 C 108.557 32.616 107.497 33.686 106.19 33.686 L 104.553 33.686 C 103.9 33.686 103.282 33.383 102.878 32.864 L 90.532 17.013 C 89.387 15.542 89.555 13.431 90.917 12.164 L 103.378 0.569 C 103.771 0.203 104.287 0 104.822 0 Z M 52.477 0 C 53.715 0.125 54.853 0.466 55.89 1.022 C 57.23 1.74 58.255 2.732 58.966 3.999 C 59.72 5.224 60.096 6.639 60.096 8.244 C 60.096 10.018 59.72 11.601 58.966 12.995 C 58.255 14.389 57.229 15.508 55.89 16.353 C 54.551 17.155 53.044 17.556 51.37 17.556 L 41.898 17.556 C 40.672 17.556 39.519 17.243 38.513 16.691 C 38.165 16.5 37.97 16.121 37.97 15.721 L 37.97 2.389 C 37.97 2.353 37.97 2.316 37.972 2.279 C 37.972 2.269 37.973 2.259 37.974 2.25 C 37.978 2.177 37.985 2.104 37.996 2.031 L 38.001 1.998 C 38.002 1.991 38.003 1.984 38.005 1.977 C 38.007 1.965 38.009 1.953 38.011 1.941 L 38.014 1.926 C 38.018 1.907 38.022 1.888 38.026 1.869 L 38.033 1.838 C 38.043 1.795 38.054 1.753 38.066 1.712 C 38.069 1.702 38.072 1.692 38.075 1.682 L 38.081 1.662 L 38.089 1.637 C 38.095 1.619 38.101 1.601 38.108 1.583 L 38.117 1.557 C 38.121 1.547 38.124 1.538 38.128 1.529 C 38.156 1.456 38.187 1.384 38.222 1.314 L 38.234 1.291 L 38.25 1.261 L 38.258 1.245 L 38.272 1.22 C 38.305 1.16 38.341 1.102 38.379 1.045 L 38.396 1.022 C 38.402 1.013 38.408 1.004 38.414 0.995 L 38.422 0.985 C 38.852 0.388 39.55 0 40.337 0 Z M 14.982 0 C 16.967 0 17.874 2.498 16.358 3.791 L 3.73 14.574 C 3.007 15.192 2.162 15.454 1.343 15.427 C 0.501 15.4 0 14.567 0 13.716 L 0 2.389 C 0 1.07 1.06 0 2.368 0 Z M 90.984 0 C 92.969 0 93.876 2.498 92.36 3.791 L 79.733 14.574 C 79.009 15.192 78.164 15.454 77.345 15.427 C 76.503 15.4 76.002 14.567 76.002 13.716 L 76.002 2.389 C 76.002 1.07 77.062 0 78.37 0 Z" fill="rgb(28,28,28)"></path></svg>